<svg width="417" height="417" viewBox="0 0 417 417" fill="none" xmlns="http://www.w3.org/2000/svg">
<path d="M16 84C16 46.4446 46.4446 16 84 16H333C370.555 16 401 46.4446 401 84V333C401 370.555 370.555 401 333 401H84C46.4446 401 16 370.555 16 333V84Z" fill="#EDEDED"/>
<path d="M208.085 213.9L269.444 286.683L208.085 267.936L145.068 331.897L88 331.117L208.085 213.9Z" fill="black"/>
<path d="M208.915 201.997L147.556 129.214L208.915 147.961L271.932 84L329 84.7798L208.915 201.997Z" fill="black"/>
<path d="M328.592 333H287.686L287.686 163.173L328.592 123.473L328.592 333Z" fill="black"/>
<path d="M88.6842 84.8759H129.59V254.703L88.6842 294.403V84.8759Z" fill="black"/>
</svg>
