<svg width="23" height="23" viewBox="0 0 23 23" fill="none" xmlns="http://www.w3.org/2000/svg">
<path d="M8.74512 5.63281C9.0804 5.63282 9.41115 5.65148 9.73633 5.68848C7.93885 6.60615 6.46552 8.06739 5.53516 9.85742L5.53418 9.85449L5.5293 9.86816C4.8392 11.2 4.44922 12.7125 4.44922 14.3164C4.44925 18.0811 6.59786 21.3413 9.73438 22.9434C9.40978 22.9803 9.07976 23 8.74512 23C3.94928 23 0.0615664 19.1122 0.0615234 14.3164C0.0615234 9.52055 3.94926 5.63281 8.74512 5.63281Z" fill="#1B5FFD"/>
<path d="M5.68848 13.2627C6.60605 15.0604 8.06731 16.5334 9.85742 17.4639L9.85449 17.4658L9.86816 17.4697C11.2001 18.16 12.7124 18.5508 14.3164 18.5508C18.0814 18.5508 21.3414 16.4016 22.9434 13.2646C22.9803 13.5896 23 13.9199 23 14.2549C23 19.0507 19.1122 22.9384 14.3164 22.9385C9.52055 22.9385 5.63281 19.0507 5.63281 14.2549C5.63282 13.9193 5.65141 13.5882 5.68848 13.2627Z" fill="#1B5FFD"/>
<path d="M14.2549 0C19.0507 0 22.9384 3.88777 22.9385 8.68359C22.9385 13.4795 19.0507 17.3672 14.2549 17.3672C13.9192 17.3672 13.5882 17.3476 13.2627 17.3105C15.0605 16.3928 16.5334 14.9319 17.4639 13.1416L17.4658 13.1455L17.4697 13.1309C18.1597 11.7991 18.5508 10.2873 18.5508 8.68359C18.5508 4.91844 16.4018 1.65754 13.2646 0.0556641C13.5895 0.0187027 13.9199 8.30352e-06 14.2549 0Z" fill="#1B5FFD"/>
<path d="M8.68359 0.0615234C13.4795 0.0615234 17.3672 3.94926 17.3672 8.74512C17.3672 9.08044 17.3475 9.41111 17.3105 9.73633C16.3927 7.93877 14.9319 6.46543 13.1416 5.53516L13.1455 5.53418L13.1309 5.5293C11.7992 4.83945 10.2872 4.44922 8.68359 4.44922C4.91875 4.44925 1.65768 6.59765 0.0556641 9.73438C0.0187747 9.40982 8.28629e-06 9.07973 0 8.74512C0 3.94928 3.88777 0.0615666 8.68359 0.0615234Z" fill="#1B5FFD"/>
</svg>
