<svg width="135" height="36" viewBox="0 0 135 36" fill="none" xmlns="http://www.w3.org/2000/svg">
<circle cx="12" cy="18" r="5" fill="#2D68FF"/>
<circle cx="12" cy="6" r="5" fill="#2D68FF"/>
<circle cx="12" cy="30" r="5" fill="#2D68FF"/>
<circle cx="24" cy="12" r="5" fill="#2D68FF"/>
<circle cx="24" cy="24" r="5" fill="#2D68FF"/>
<path d="M127.839 22.184C127.852 22.184 127.863 22.1746 127.864 22.1621C127.952 21.5123 128.062 20.9892 128.257 20.38L129.951 15.0096C130.017 14.8015 130.21 14.66 130.428 14.66H132.678C133.029 14.66 133.271 15.0115 133.145 15.339L127.897 29.035C127.822 29.2284 127.637 29.356 127.43 29.356H125.132C124.77 29.356 124.528 28.984 124.675 28.6534L126.171 25.2779C126.225 25.1564 126.228 25.0183 126.18 24.8944L122.472 15.341C122.345 15.0132 122.586 14.66 122.938 14.66H125.251C125.469 14.66 125.662 14.8015 125.728 15.0096L127.421 20.38C127.617 20.9892 127.727 21.5123 127.815 22.1621C127.816 22.1746 127.827 22.184 127.839 22.184Z" fill="#1B1B1B"/>
<path d="M115.813 19.06C115.813 16.574 117.221 14.418 120.345 14.418C120.754 14.418 121.09 14.4423 121.443 14.5089C121.666 14.5511 121.819 14.7528 121.819 14.9803V16.785C121.819 17.0752 121.573 17.3049 121.283 17.3012C121.194 17.3 121.121 17.3 121.071 17.3C119.465 17.3 118.849 18.026 118.849 19.302V24.5C118.849 24.7762 118.626 25 118.349 25H116.313C116.037 25 115.813 24.7762 115.813 24.5V19.06Z" fill="#1B1B1B"/>
<path d="M109.364 19.06C109.364 16.574 110.772 14.418 113.896 14.418C114.304 14.418 114.64 14.4423 114.993 14.5089C115.216 14.5511 115.37 14.7528 115.37 14.9803V16.785C115.37 17.0752 115.123 17.3049 114.833 17.3012C114.744 17.3 114.671 17.3 114.622 17.3C113.016 17.3 112.4 18.026 112.4 19.302V24.5C112.4 24.7762 112.176 25 111.9 25H109.864C109.587 25 109.364 24.7762 109.364 24.5V19.06Z" fill="#1B1B1B"/>
<path d="M102.672 25.242C99.3936 25.242 97.2596 22.932 97.2596 19.83C97.2596 16.75 99.4596 14.418 102.584 14.418C105.708 14.418 107.864 16.75 107.864 19.83L107.852 20.3311C107.846 20.6029 107.624 20.82 107.353 20.82H100.076C100.406 22.14 101.33 22.8 102.606 22.8C103.772 22.8 104.388 22.514 104.806 21.876H106.899C107.23 21.876 107.47 22.192 107.339 22.4952C106.5 24.4421 104.531 25.242 102.672 25.242ZM100.054 18.796H105.092C104.894 17.674 103.838 16.882 102.584 16.882C101.264 16.882 100.34 17.652 100.054 18.796Z" fill="#1B1B1B"/>
<path d="M90.8926 25.242C87.7246 25.242 85.3706 22.932 85.3706 19.588V10.496C85.3706 10.2199 85.5945 9.99603 85.8706 9.99603H87.9066C88.1828 9.99603 88.4066 10.2199 88.4066 10.496V15.914C89.0446 14.968 90.1006 14.418 91.5086 14.418C94.1266 14.418 96.3266 16.53 96.3266 19.83C96.3266 22.91 94.0606 25.242 90.8926 25.242ZM90.8926 22.624C92.3006 22.624 93.3346 21.48 93.3346 19.83C93.3346 18.18 92.3006 17.036 90.8926 17.036C89.6826 17.036 88.3626 17.872 88.3626 19.83C88.3626 21.48 89.4406 22.624 90.8926 22.624Z" fill="#1B1B1B"/>
<path d="M78.3824 14.264C78.3824 11.206 80.0544 9.82001 82.3644 9.82001C82.7315 9.82001 83.1239 9.85798 83.5416 9.92432C83.7784 9.96192 83.9484 10.1693 83.9484 10.409V11.8574C83.9484 12.1554 83.6895 12.3799 83.3916 12.373C83.3645 12.3723 83.3375 12.372 83.3104 12.372C81.9904 12.372 81.4184 13.01 81.4184 14.132V14.16C81.4184 14.4362 81.6422 14.66 81.9184 14.66H83.8664C84.1425 14.66 84.3664 14.8839 84.3664 15.16V16.536C84.3664 16.8122 84.1425 17.036 83.8664 17.036H81.9184C81.6422 17.036 81.4184 17.2599 81.4184 17.536V24.5C81.4184 24.7762 81.1945 25 80.9184 25H78.8824C78.6062 25 78.3824 24.7762 78.3824 24.5V17.536C78.3824 17.2599 78.1585 17.036 77.8824 17.036H76.8584C76.5822 17.036 76.3584 16.8122 76.3584 16.536V15.16C76.3584 14.8839 76.5822 14.66 76.8584 14.66H77.9864C78.2051 14.66 78.3824 14.4827 78.3824 14.264Z" fill="#1B1B1B"/>
<path d="M71.2124 25.242C67.9344 25.242 65.8004 22.932 65.8004 19.83C65.8004 16.75 68.0004 14.418 71.1244 14.418C74.2484 14.418 76.4044 16.75 76.4044 19.83L76.3933 20.3311C76.3873 20.6029 76.1652 20.82 75.8934 20.82H68.6164C68.9464 22.14 69.8704 22.8 71.1464 22.8C72.1711 22.8 72.7711 22.5791 73.1851 22.0926C73.2944 21.9642 73.448 21.876 73.6166 21.876H75.4402C75.7704 21.876 76.0105 22.192 75.8799 22.4952C75.0414 24.4421 73.0724 25.242 71.2124 25.242ZM68.5944 18.796H73.6324C73.4344 17.674 72.3784 16.882 71.1244 16.882C69.8044 16.882 68.8804 17.652 68.5944 18.796Z" fill="#1B1B1B"/>
<path d="M61.7853 25C61.5091 25 61.2853 24.7762 61.2853 24.5V15.16C61.2853 14.8839 61.5091 14.66 61.7853 14.66H63.8213C64.0974 14.66 64.3213 14.8839 64.3213 15.16V24.5C64.3213 24.7762 64.0974 25 63.8213 25H61.7853Z" fill="#1B1B1B"/>
<path d="M53.8574 19.06C53.8574 16.574 55.2654 14.418 58.3894 14.418C58.7979 14.418 59.1336 14.4423 59.4866 14.5089C59.7102 14.5511 59.8634 14.7528 59.8634 14.9803V16.785C59.8634 17.0752 59.617 17.3049 59.3268 17.3012C59.238 17.3 59.1645 17.3 59.1154 17.3C57.5094 17.3 56.8934 18.026 56.8934 19.302V24.5C56.8934 24.7762 56.6695 25 56.3934 25H54.3574C54.0812 25 53.8574 24.7762 53.8574 24.5V19.06Z" fill="#1B1B1B"/>
<path d="M46.9184 25.242C43.7504 25.242 41.3964 22.932 41.3964 19.588V10.496C41.3964 10.2199 41.6203 9.99603 41.8964 9.99603H43.9324C44.2086 9.99603 44.4324 10.2199 44.4324 10.496V15.914C45.0704 14.968 46.1264 14.418 47.5344 14.418C50.1524 14.418 52.3524 16.53 52.3524 19.83C52.3524 22.91 50.0864 25.242 46.9184 25.242ZM46.9184 22.624C48.3264 22.624 49.3604 21.48 49.3604 19.83C49.3604 18.18 48.3264 17.036 46.9184 17.036C45.7084 17.036 44.3884 17.872 44.3884 19.83C44.3884 21.48 45.4664 22.624 46.9184 22.624Z" fill="#1B1B1B"/>
</svg>
