<svg width="22" height="22" viewBox="0 0 22 22" fill="none" xmlns="http://www.w3.org/2000/svg">
<path d="M8.74092 10.1847C9.39614 10.1849 9.9178 10.7777 9.90752 11.4941C9.90728 12.2157 9.39058 12.8023 8.74092 12.8025C8.10082 12.8025 7.57348 12.2153 7.57324 11.4941C7.57324 10.7727 8.09039 10.1847 8.74092 10.1847Z" fill="#19363F"/>
<path d="M13.0571 10.1847C13.7123 10.1849 14.234 10.7777 14.2237 11.4941C14.2235 12.2157 13.7122 12.8023 13.0571 12.8025C12.4176 12.8025 11.8897 12.2153 11.8895 11.4941C11.8895 10.7727 12.4066 10.1847 13.0571 10.1847Z" fill="#19363F"/>
<path fill-rule="evenodd" clip-rule="evenodd" d="M11 0C17.0751 0 22 4.92487 22 11C22 17.0751 17.0751 22 11 22C4.92487 22 0 17.0751 0 11C0 4.92487 4.92487 0 11 0ZM12.7521 6.05107C12.7353 6.04784 12.7183 6.05537 12.7091 6.07041C12.5949 6.27336 12.4686 6.53934 12.3804 6.74717C11.3818 6.59779 10.3881 6.59779 9.41016 6.74717C9.32194 6.53447 9.19134 6.27336 9.07715 6.07041C9.06799 6.05533 9.05087 6.04848 9.03418 6.05107C8.10668 6.21071 7.21902 6.49032 6.39053 6.8707C6.38349 6.87341 6.37605 6.87925 6.37227 6.88574C4.68887 9.40108 4.2275 11.8552 4.45371 14.2785C4.45489 14.2903 4.46179 14.3016 4.4709 14.3086C5.58186 15.1246 6.65765 15.6199 7.71397 15.9479C7.73062 15.9532 7.74826 15.9467 7.75908 15.9328C8.00912 15.5919 8.2319 15.2315 8.42295 14.8532C8.43407 14.8312 8.42337 14.805 8.40039 14.7963C8.04703 14.6621 7.71101 14.498 7.3874 14.3129C7.36197 14.2977 7.35983 14.262 7.38311 14.2441C7.45121 14.1933 7.51912 14.1397 7.58398 14.0862C7.59577 14.0767 7.61196 14.0746 7.62588 14.0809C9.75175 15.0512 12.0535 15.0512 14.1539 14.0809C14.1679 14.0745 14.1845 14.076 14.1969 14.0862C14.2618 14.1398 14.3301 14.1933 14.3988 14.2441C14.4225 14.2615 14.4205 14.2988 14.3945 14.314C14.0709 14.5028 13.7344 14.6632 13.3805 14.7963C13.3575 14.8051 13.3482 14.8322 13.359 14.8543C13.5538 15.2319 13.7767 15.592 14.0218 15.9328C14.0321 15.9473 14.0502 15.9527 14.0669 15.9479C15.1282 15.6193 16.2048 15.1242 17.3153 14.3086C17.3249 14.3016 17.3314 14.2913 17.3325 14.2796C17.6031 11.4779 16.8784 9.04402 15.4118 6.88682C15.4091 6.87924 15.4027 6.87341 15.3957 6.8707C14.5677 6.4908 13.6802 6.21127 12.7521 6.05107Z" fill="#19363F"/>
<path d="M11 0.0996094C17.0199 0.0996094 21.9004 4.9801 21.9004 11C21.9004 17.0199 17.0199 21.9004 11 21.9004C4.9801 21.9004 0.0996094 17.0199 0.0996094 11C0.0996095 4.9801 4.9801 0.0996095 11 0.0996094ZM12.7686 5.95215C12.7108 5.94206 12.6541 5.96955 12.624 6.01855L12.6221 6.02148C12.5183 6.20592 12.4058 6.44012 12.3193 6.6377C11.3619 6.50162 10.4089 6.50157 9.46973 6.6377C9.38186 6.43603 9.26724 6.20486 9.16406 6.02148L9.16309 6.01855L9.13379 5.98438C9.11201 5.96576 9.0855 5.95546 9.05859 5.95215H9.01758C8.08345 6.11292 7.18909 6.39473 6.35449 6.77734C6.33092 6.78644 6.30592 6.80417 6.28906 6.83008C4.69808 9.20734 4.18873 11.5333 4.31934 13.8291L4.35449 14.2881C4.35867 14.3298 4.38126 14.3655 4.41016 14.3877L4.41211 14.3896C5.53236 15.2124 6.61824 15.7111 7.68359 16.042V16.043C7.74478 16.0625 7.80443 16.0371 7.83789 15.9941L7.83984 15.9922C8.093 15.647 8.31906 15.2819 8.5127 14.8984C8.55146 14.8215 8.51195 14.7322 8.43555 14.7031C8.11546 14.5815 7.80979 14.4338 7.51367 14.2686C7.54879 14.2414 7.58314 14.2133 7.61719 14.1855C9.74909 15.1481 12.0545 15.1482 14.1621 14.1855C14.1967 14.2137 14.2327 14.241 14.2686 14.2686C13.9728 14.4361 13.6672 14.5822 13.3457 14.7031H13.3447C13.2618 14.735 13.2356 14.8288 13.2695 14.8984L13.2705 14.9004C13.4184 15.187 13.5816 15.4638 13.7588 15.7295L13.9404 15.9912C13.9682 16.03 14.0107 16.0492 14.0527 16.0498L14.0947 16.0439L14.0967 16.043C15.1674 15.7115 16.2537 15.2114 17.374 14.3887C17.4039 14.3668 17.4274 14.3322 17.4316 14.2891C17.7046 11.4624 16.9727 9.006 15.4941 6.83105L15.4922 6.83203C15.4777 6.80814 15.4589 6.79005 15.4365 6.78027H15.4375C15.4356 6.7794 15.4335 6.77821 15.4316 6.77734H15.4307C14.5968 6.39542 13.7029 6.11343 12.7686 5.95215ZM8.74121 10.2852C9.33086 10.2856 9.81724 10.8225 9.80762 11.4932V11.4941C9.80738 12.1719 9.32472 12.7017 8.74121 12.7021C8.16659 12.7021 7.6731 12.171 7.67285 11.4941L7.67871 11.3691C7.73383 10.7522 8.1932 10.2852 8.74121 10.2852ZM13.0566 10.2852C13.6464 10.2854 14.1336 10.8224 14.124 11.4932V11.4941C14.1238 12.1723 13.6454 12.7009 13.0566 12.7012C12.4827 12.7009 11.9895 12.1707 11.9893 11.4941L11.9951 11.3691C12.0502 10.7524 12.5088 10.2854 13.0566 10.2852Z" stroke="white" stroke-opacity="0.2" stroke-width="0.2"/>
</svg>
