<svg xmlns="http://www.w3.org/2000/svg" width="20" height="20" viewBox="0 0 20 20" fill="none">
  <g clip-path="url(#clip0_1_852)">
    <path d="M9.76758 17.7383C10.3574 18.1238 11.0205 18.4029 11.7334 18.5518V19.5391C10.7577 19.3652 9.85495 18.9811 9.07227 18.4336L9.76758 17.7383ZM16.7617 18.4336C15.979 18.9811 15.0763 19.3652 14.1006 19.5391V18.5518C14.8139 18.403 15.477 18.1238 16.0664 17.7383L16.7617 18.4336ZM19.541 14.0996C19.3672 15.0754 18.9821 15.978 18.4346 16.7607L17.7393 16.0654C18.1248 15.4756 18.404 14.8125 18.5527 14.0996H19.541ZM6.37109 14.4756C6.60357 14.5002 6.84063 14.5166 7.08301 14.5166C7.18541 14.5166 7.28643 14.5123 7.38477 14.5068L7.38574 14.5107L7.3916 14.5098C7.5499 15.0636 7.7858 15.5874 8.09473 16.0635L7.39941 16.7588C6.92375 16.0776 6.5703 15.3062 6.37109 14.4756ZM12.917 7.84961C13.2002 7.84963 13.4783 7.88242 13.7559 7.93457C13.3715 10.9666 10.966 13.3715 7.93457 13.7559C7.88244 13.4785 7.84963 13.2007 7.84961 12.917C7.84961 10.1236 10.1236 7.84961 12.917 7.84961ZM7.08301 0.349609C10.2549 0.349609 12.9143 2.55916 13.6221 5.51953C13.3903 5.49682 13.1552 5.48341 12.917 5.4834C8.81786 5.4834 5.4834 8.81786 5.4834 12.917C5.48341 13.1554 5.49679 13.3904 5.51953 13.6221C2.55912 12.9151 0.349609 10.255 0.349609 7.08301C0.349786 3.37073 3.37073 0.349786 7.08301 0.349609ZM18.4346 9.07129C18.9821 9.854 19.3671 10.7567 19.541 11.7324H18.5527C18.4039 11.0196 18.1257 10.3555 17.7402 9.76562L18.4346 9.07129ZM14.4756 6.37012C15.3066 6.56917 16.078 6.9224 16.7588 7.39844L16.0635 8.09375C15.5877 7.78487 15.0632 7.55112 14.5098 7.39258L14.5107 7.38574L14.5078 7.38477C14.5132 7.28625 14.5166 7.18536 14.5166 7.08301C14.5166 6.84047 14.5003 6.60314 14.4756 6.37012Z" fill="url(#paint0_linear_1_852)" stroke="white" stroke-width="0.7"/>
  </g>
  <defs>
    <linearGradient id="paint0_linear_1_852" x1="16.4542" y1="0.00024396" x2="1.49634" y2="18.4563" gradientUnits="userSpaceOnUse">
      <stop stop-color="white"/>
      <stop offset="1" stop-color="white" stop-opacity="0.5"/>
    </linearGradient>
    <clipPath id="clip0_1_852">
      <rect width="20" height="20" fill="white"/>
    </clipPath>
  </defs>
</svg>