<svg xmlns="http://www.w3.org/2000/svg" width="10" height="10" viewBox="0 0 10 10" fill="none">
  <g clip-path="url(#clip0_1_809)">
    <path d="M4.99992 9.99996C2.70242 9.99996 0.833252 8.13079 0.833252 5.83329C0.833252 4.43413 1.46034 3.55871 2.402 2.67496L3.422 1.71704L3.092 3.07663C2.97742 3.54996 2.94742 4.99579 3.55534 5.76871C3.80992 6.09246 4.14617 6.24996 4.58325 6.24996C5.0445 6.24996 5.41075 5.88163 5.41658 5.41121C5.42242 4.94579 5.22575 4.56038 5.01742 4.15288C4.80409 3.73538 4.58325 3.30413 4.58325 2.77996C4.58325 1.65038 5.17159 0.626628 5.19659 0.583711L5.54159 -0.00878906L5.90867 0.570794C6.26242 1.12871 6.7395 1.64871 7.20159 2.15163C8.16784 3.20329 9.167 4.29163 9.167 5.83371C9.167 8.13121 7.29784 10.0004 5.00034 10.0004L4.99992 9.99996Z" fill="white"/>
  </g>
  <defs>
    <clipPath id="clip0_1_809">
      <rect width="10" height="10" fill="white"/>
    </clipPath>
  </defs>
</svg>