<svg width="20" height="20" viewBox="0 0 20 20" fill="none" xmlns="http://www.w3.org/2000/svg">
<path d="M4.16699 11.4619H6.94336C7.82407 11.4619 8.53776 12.1747 8.53809 13.0547V15.833C8.53797 16.7136 7.82381 17.4287 6.94336 17.4287H4.16699C3.28654 17.4287 2.57141 16.7136 2.57129 15.833V13.0547C2.57161 12.1747 3.28629 11.4619 4.16699 11.4619ZM12.5684 13.3496H17.0996C17.2177 13.35 17.4285 13.4966 17.4287 13.833L17.4189 13.9502C17.3771 14.2037 17.2032 14.3161 17.0996 14.3164H12.5684L12.5205 14.3096C12.4009 14.2767 12.2393 14.1274 12.2393 13.833L12.249 13.7158C12.285 13.4985 12.4181 13.3846 12.5205 13.3564L12.5684 13.3496ZM4.16699 2.57129H6.94336C7.82381 2.57129 8.53797 3.28644 8.53809 4.16699V6.94531C8.53776 7.82569 7.82368 8.54004 6.94336 8.54004H4.16699C3.28667 8.54004 2.57161 7.82569 2.57129 6.94531V4.16699C2.57141 3.28644 3.28654 2.57129 4.16699 2.57129ZM12.5684 5.0166H17.0996C17.2177 5.017 17.4286 5.16346 17.4287 5.5C17.4286 5.83624 17.2179 5.983 17.0996 5.9834H12.5684L12.5205 5.97559C12.4009 5.94266 12.2394 5.79403 12.2393 5.5C12.2394 5.20567 12.401 5.05637 12.5205 5.02344L12.5684 5.0166Z" fill="url(#paint0_linear_2290_28305)" stroke="white" stroke-width="0.7"/>
<defs>
<linearGradient id="paint0_linear_2290_28305" x1="10" y1="2.22168" x2="10" y2="17.7783" gradientUnits="userSpaceOnUse">
<stop stop-color="white"/>
<stop offset="1" stop-color="white" stop-opacity="0.5"/>
</linearGradient>
</defs>
</svg>
