<svg xmlns="http://www.w3.org/2000/svg" width="20" height="20" viewBox="0 0 20 20" fill="none">
  <g clip-path="url(#clip0_1_845)">
    <path d="M17.0549 0.350098H17.0598C17.6848 0.341838 18.2915 0.562046 18.7649 0.970215C19.1793 1.32752 19.4667 1.80703 19.5881 2.33643L19.6301 2.56592C19.6977 3.17694 19.5991 3.79513 19.345 4.35498L19.344 4.35693C19.3049 4.44378 19.2412 4.51788 19.1614 4.56982C19.0815 4.62166 18.988 4.64944 18.8928 4.6499H16.6575C16.3436 4.6499 16.0425 4.77466 15.8206 4.99658C15.5987 5.21848 15.4739 5.51973 15.4739 5.8335V6.6665C15.4739 6.79467 15.4229 6.91767 15.3323 7.0083C15.2416 7.09884 15.1186 7.1499 14.9905 7.1499H14.1575C13.8436 7.1499 13.5425 7.27466 13.3206 7.49658C13.0987 7.71849 12.9739 8.01973 12.9739 8.3335V10.5757C12.9578 10.8533 12.8538 11.1177 12.678 11.3306L12.5969 11.4194L11.9143 12.1021L11.9651 12.2964C12.2267 13.2973 12.2137 14.3509 11.928 15.3452L11.927 15.3462C11.6049 16.4807 10.952 17.4934 10.051 18.2544C9.20617 18.9679 8.17941 19.4293 7.08813 19.5894L6.86938 19.6177C6.66499 19.6389 6.45964 19.6497 6.25415 19.6499L5.98755 19.644C4.65921 19.5831 3.38737 19.074 2.3811 18.1968C1.30776 17.261 0.60847 15.9687 0.41333 14.5581C0.218249 13.1476 0.540548 11.714 1.31958 10.522C2.09863 9.33003 3.28238 8.46026 4.65259 8.07275L4.65356 8.07178C5.64849 7.78687 6.7017 7.77447 7.70337 8.03467L7.89771 8.08447L8.03931 7.94287L14.6292 1.35498C15.2725 0.711561 16.145 0.350155 17.0549 0.350098ZM5.19556 13.938C4.90321 13.8169 4.5811 13.7854 4.27075 13.8472C3.96051 13.9089 3.6751 14.061 3.45142 14.2847C3.22773 14.5084 3.07568 14.7937 3.01392 15.104C2.95218 15.4144 2.98365 15.7365 3.10474 16.0288C3.22584 16.3212 3.43146 16.5708 3.69458 16.7466C3.95768 16.9224 4.26684 17.0161 4.58325 17.0161C5.00759 17.0161 5.41503 16.8474 5.71509 16.5474C6.01484 16.2474 6.18284 15.8406 6.18286 15.4165C6.18286 15.1001 6.0891 14.7909 5.91333 14.5278C5.73752 14.2647 5.48792 14.0591 5.19556 13.938Z" fill="url(#paint0_linear_1_845)" stroke="white" stroke-width="0.7"/>
  </g>
  <defs>
    <linearGradient id="paint0_linear_1_845" x1="16.4999" y1="-0.000243656" x2="1.49988" y2="18.4998" gradientUnits="userSpaceOnUse">
      <stop stop-color="white"/>
      <stop offset="1" stop-color="white" stop-opacity="0.5"/>
    </linearGradient>
    <clipPath id="clip0_1_845">
      <rect width="20" height="20" fill="white"/>
    </clipPath>
  </defs>
</svg>