<svg xmlns="http://www.w3.org/2000/svg" width="20" height="20" viewBox="0 0 20 20" fill="none">
  <g clip-path="url(#clip0_1_861)">
    <path d="M12.9824 17.8496V17.917C12.9823 18.8744 12.2065 19.6504 11.249 19.6504H8.73145C7.75782 19.6502 7.00459 18.8429 7.00879 17.8496H12.9824ZM9.89258 3.68457C11.6019 3.65859 13.212 4.29827 14.4287 5.49512C16.3779 7.41119 16.9319 10.3683 15.5488 13.166C15.2642 13.7404 14.7932 14.2138 14.2549 14.6631C13.958 14.9106 13.7226 15.1898 13.5312 15.4824H11.1836V11.7451C12.1612 11.2962 12.8505 10.3168 12.8506 9.16602C12.8506 8.51193 12.3211 7.9825 11.667 7.98242C11.0126 7.98242 10.4834 8.51294 10.4834 9.16602C10.4833 9.43267 10.2667 9.64941 10 9.64941C9.73319 9.64932 9.51665 9.43322 9.5166 9.16602C9.5166 8.51204 8.9879 7.98267 8.33398 7.98242C7.67985 7.98242 7.15039 8.51188 7.15039 9.16602C7.15043 10.3167 7.839 11.2961 8.81641 11.7451V15.4824H6.4502C6.30846 15.2475 6.14044 15.0189 5.92773 14.8232C5.33537 14.2782 4.80766 13.7006 4.45605 13.0254C2.16572 8.6222 5.32455 4.05056 9.4873 3.7041L9.89258 3.68457ZM0.408203 4.59766C0.521797 4.35747 0.812021 4.25556 1.0498 4.37109L1.05176 4.37207L2.5498 5.08887C2.79018 5.20374 2.89253 5.493 2.77734 5.7334L2.77637 5.73438C2.6944 5.90646 2.52254 6.00879 2.34082 6.00879C2.27189 6.00876 2.2014 5.99351 2.13379 5.96094L2.13281 5.95996L0.634766 5.24316V5.24219L0.550781 5.19141C0.371849 5.05584 0.306379 4.80877 0.407227 4.59863L0.408203 4.59766ZM18.9717 4.31836C19.2116 4.20872 19.498 4.31584 19.6094 4.56152C19.719 4.80388 19.6109 5.08946 19.3672 5.19922L17.7568 5.92578L17.7549 5.92676C17.6922 5.95546 17.6259 5.9697 17.5596 5.96973C17.3741 5.96973 17.1988 5.86317 17.1182 5.68457V5.68359C17.0085 5.44131 17.1159 5.15578 17.3594 5.0459H17.3604L18.9697 4.31934L18.9717 4.31836ZM3.95312 0.411133C4.18 0.272111 4.47736 0.342975 4.61719 0.570312L5.64551 2.24609C5.78501 2.47345 5.7125 2.77116 5.48438 2.91113C5.4046 2.95903 5.31861 2.98144 5.23438 2.98145C5.07063 2.98145 4.91146 2.89871 4.82129 2.75098V2.75L3.79395 1.0752C3.67195 0.876367 3.71069 0.624483 3.875 0.470703L3.95312 0.411133ZM15.3154 0.569336C15.4538 0.342495 15.751 0.270478 15.9795 0.411133V0.412109C16.207 0.551766 16.2779 0.848491 16.1377 1.07617L15.1084 2.75098V2.75195C15.0184 2.89934 14.8603 2.98135 14.6963 2.98145C14.6104 2.98145 14.5239 2.95888 14.4443 2.91016C14.2454 2.7881 14.1661 2.54537 14.2432 2.33398L14.2861 2.24512L15.3154 0.570312V0.569336Z" fill="url(#paint0_linear_1_861)" stroke="white" stroke-width="0.7"/>
  </g>
  <defs>
    <linearGradient id="paint0_linear_1_861" x1="16.5016" y1="-0.0104974" x2="1.49199" y2="18.4915" gradientUnits="userSpaceOnUse">
      <stop stop-color="white"/>
      <stop offset="1" stop-color="white" stop-opacity="0.5"/>
    </linearGradient>
    <clipPath id="clip0_1_861">
      <rect width="20" height="20" fill="white"/>
    </clipPath>
  </defs>
</svg>